<svg width="752" height="900" viewBox="0 0 752 900" fill="none" xmlns="http://www.w3.org/2000/svg">
<g filter="url(#filter0_d)">
<rect width="748" height="900" fill="#FBEFEC"/>
<path d="M404.686 273.096L421.097 280.027L431.521 269.782L440.123 280.654L455.778 273.517L453.745 291.106L468.153 302.129L453.611 307.671L456.775 321.733L442.346 321.904L437.406 335.001L423.849 330.536L413.464 341.872L405.238 331.851L388.85 336.561L391.988 321.554L379.84 314.831L389.541 305.424L381.482 291.896L400.537 288.985L404.686 273.096Z" fill="#EC552F"/>
<path d="M401.753 307.318C402.891 305.371 404.59 303.764 406.628 302.772C408.618 301.814 410.838 301.462 413 301.762C414.203 301.92 415.361 302.299 416.461 302.821C416.898 303.046 417.483 302.685 417.63 302.26C417.817 301.749 417.538 301.338 417.101 301.113C412.576 298.912 406.97 299.692 403.071 302.96C401.963 303.912 400.989 305.03 400.253 306.298C399.998 306.713 400.058 307.266 400.478 307.547C400.871 307.833 401.528 307.756 401.753 307.318Z" fill="#FFF7ED"/>
<path d="M403.427 317.038C409.506 317.896 415.792 317.864 421.82 316.374C427.718 314.904 433.183 312.058 437.87 308.183C440.807 305.764 443.442 302.964 445.813 300.018C446.217 299.526 445.829 298.597 445.164 298.622C444.685 298.644 444.203 298.64 443.724 298.663C443.246 298.685 442.783 298.972 442.731 299.489C442.693 299.924 443.049 300.483 443.553 300.457C444.032 300.434 444.514 300.438 444.993 300.416C444.783 299.941 444.552 299.495 444.343 299.02C440.457 303.892 435.814 308.215 430.291 311.204C425.235 313.932 419.637 315.435 413.931 315.75C410.508 315.944 407.045 315.716 403.654 315.262C403.163 315.206 402.695 315.628 402.661 316.089C402.552 316.588 402.936 316.982 403.427 317.038Z" fill="#FFF7ED"/>
<path d="M425.524 299.19C428.119 295.459 432.199 292.993 436.79 292.908C438.124 292.884 439.458 293.021 440.738 293.327C441.211 293.439 441.721 293.278 441.907 292.767C442.054 292.342 441.85 291.732 441.378 291.619C438.874 291.025 436.232 290.908 433.702 291.496C431.25 292.072 428.945 293.24 427.036 294.881C425.903 295.837 424.907 296.985 424.08 298.187C423.372 299.129 424.846 300.154 425.524 299.19Z" fill="#FFF7ED"/>
<path d="M419.61 297.182C419.879 301.074 419.725 305.007 419.16 308.871C419.05 309.531 419.832 310.077 420.452 309.764C423.176 308.369 425.9 306.974 428.619 305.553C429.065 305.322 429.277 304.806 429.072 304.357C428.872 303.933 428.3 303.703 427.854 303.934C425.131 305.329 422.407 306.724 419.687 308.145C420.111 308.453 420.53 308.735 420.98 309.038C421.573 305.009 421.702 300.919 421.408 296.87C421.386 296.392 420.824 296.052 420.358 296.153C419.835 296.236 419.562 296.707 419.61 297.182Z" fill="#FFF7ED"/>
<path d="M107.169 214.985V228.323C105.895 228.947 104.361 229.441 102.567 229.805C100.773 230.169 98.94 230.351 97.068 230.351C94.208 230.351 91.725 229.779 89.619 228.635C87.513 227.491 85.901 225.853 84.783 223.721C83.665 221.589 83.106 219.041 83.106 216.077C83.106 213.165 83.665 210.643 84.783 208.511C85.901 206.379 87.487 204.741 89.541 203.597C91.621 202.453 94.052 201.881 96.834 201.881C98.784 201.881 100.604 202.167 102.294 202.739C104.01 203.311 105.44 204.117 106.584 205.157L104.868 208.823C103.568 207.809 102.294 207.081 101.046 206.639C99.798 206.197 98.433 205.976 96.951 205.976C94.091 205.976 91.92 206.834 90.438 208.55C88.982 210.266 88.254 212.775 88.254 216.077C88.254 219.483 89.008 222.057 90.516 223.799C92.024 225.515 94.273 226.373 97.263 226.373C99.083 226.373 100.877 226.126 102.645 225.632V218.612H96.639V214.985H107.169ZM129.916 220.406H116.344C116.448 222.512 116.968 224.072 117.904 225.086C118.866 226.074 120.283 226.568 122.155 226.568C124.313 226.568 126.315 225.866 128.161 224.462L129.565 227.816C128.629 228.57 127.472 229.181 126.094 229.649C124.742 230.091 123.364 230.312 121.96 230.312C118.736 230.312 116.201 229.402 114.355 227.582C112.509 225.762 111.586 223.266 111.586 220.094C111.586 218.092 111.989 216.311 112.795 214.751C113.601 213.191 114.732 211.982 116.188 211.124C117.644 210.24 119.295 209.798 121.141 209.798C123.845 209.798 125.977 210.682 127.537 212.45C129.123 214.192 129.916 216.597 129.916 219.665V220.406ZM121.258 213.308C119.958 213.308 118.892 213.698 118.06 214.478C117.254 215.232 116.734 216.337 116.5 217.793H125.665C125.509 216.311 125.054 215.193 124.3 214.439C123.572 213.685 122.558 213.308 121.258 213.308ZM141.454 230.312C137.892 230.312 135.058 229.48 132.952 227.816L134.317 224.384C136.423 225.944 138.828 226.724 141.532 226.724C142.702 226.724 143.599 226.529 144.223 226.139C144.873 225.749 145.198 225.203 145.198 224.501C145.198 223.903 144.977 223.435 144.535 223.097C144.093 222.733 143.339 222.421 142.273 222.161L138.997 221.42C135.409 220.64 133.615 218.807 133.615 215.921C133.615 214.725 133.953 213.672 134.629 212.762C135.305 211.826 136.254 211.098 137.476 210.578C138.698 210.058 140.115 209.798 141.727 209.798C143.131 209.798 144.483 210.019 145.783 210.461C147.083 210.877 148.227 211.488 149.215 212.294L147.772 215.609C145.796 214.153 143.768 213.425 141.688 213.425C140.57 213.425 139.699 213.633 139.075 214.049C138.451 214.465 138.139 215.037 138.139 215.765C138.139 216.337 138.321 216.792 138.685 217.13C139.075 217.468 139.725 217.754 140.635 217.988L143.989 218.729C145.939 219.171 147.356 219.86 148.24 220.796C149.15 221.706 149.605 222.902 149.605 224.384C149.605 226.204 148.877 227.647 147.421 228.713C145.965 229.779 143.976 230.312 141.454 230.312ZM159.983 213.971V222.785C159.983 225.099 161.062 226.256 163.22 226.256C163.818 226.256 164.468 226.152 165.17 225.944V229.805C164.312 230.117 163.272 230.273 162.05 230.273C159.814 230.273 158.098 229.649 156.902 228.401C155.706 227.153 155.108 225.359 155.108 223.019V213.971H151.325V210.305H155.108V205.508L159.983 203.87V210.305H165.209V213.971H159.983ZM168.754 210.305H173.59V230H168.754V210.305ZM173.863 201.374V206.171H168.442V201.374H173.863ZM188.049 230.312C186.047 230.312 184.279 229.896 182.745 229.064C181.237 228.232 180.067 227.049 179.235 225.515C178.429 223.955 178.026 222.135 178.026 220.055C178.026 217.975 178.429 216.168 179.235 214.634C180.067 213.074 181.237 211.878 182.745 211.046C184.279 210.214 186.047 209.798 188.049 209.798C190.025 209.798 191.767 210.214 193.275 211.046C194.783 211.878 195.94 213.074 196.746 214.634C197.578 216.168 197.994 217.975 197.994 220.055C197.994 222.135 197.578 223.955 196.746 225.515C195.94 227.049 194.783 228.232 193.275 229.064C191.767 229.896 190.025 230.312 188.049 230.312ZM188.01 226.49C189.674 226.49 190.935 225.957 191.793 224.891C192.677 223.799 193.119 222.187 193.119 220.055C193.119 217.949 192.677 216.35 191.793 215.258C190.909 214.14 189.661 213.581 188.049 213.581C186.411 213.581 185.15 214.14 184.266 215.258C183.382 216.35 182.94 217.949 182.94 220.055C182.94 222.187 183.369 223.799 184.227 224.891C185.111 225.957 186.372 226.49 188.01 226.49ZM213.664 209.798C218.37 209.798 220.723 212.502 220.723 217.91V230H215.848V218.144C215.848 216.584 215.549 215.453 214.951 214.751C214.353 214.023 213.43 213.659 212.182 213.659C210.7 213.659 209.504 214.14 208.594 215.102C207.684 216.038 207.229 217.286 207.229 218.846V230H202.393V215.882C202.393 213.802 202.289 211.943 202.081 210.305H206.644L206.995 213.542C207.671 212.346 208.581 211.423 209.725 210.773C210.895 210.123 212.208 209.798 213.664 209.798ZM244.924 210.305V230H240.127V226.841C239.529 227.933 238.671 228.791 237.553 229.415C236.435 230.013 235.161 230.312 233.731 230.312C232.015 230.312 230.494 229.896 229.168 229.064C227.842 228.232 226.815 227.049 226.087 225.515C225.359 223.981 224.995 222.2 224.995 220.172C224.995 218.144 225.359 216.35 226.087 214.79C226.841 213.204 227.881 211.982 229.207 211.124C230.533 210.24 232.041 209.798 233.731 209.798C235.161 209.798 236.435 210.11 237.553 210.734C238.671 211.332 239.529 212.177 240.127 213.269V210.305H244.924ZM235.057 226.49C236.669 226.49 237.917 225.931 238.801 224.813C239.685 223.695 240.127 222.122 240.127 220.094C240.127 218.014 239.685 216.415 238.801 215.297C237.917 214.179 236.656 213.62 235.018 213.62C233.406 213.62 232.145 214.205 231.235 215.375C230.351 216.519 229.909 218.118 229.909 220.172C229.909 222.2 230.351 223.76 231.235 224.852C232.145 225.944 233.419 226.49 235.057 226.49ZM267.527 213.971V222.785C267.527 225.099 268.606 226.256 270.764 226.256C271.362 226.256 272.012 226.152 272.714 225.944V229.805C271.856 230.117 270.816 230.273 269.594 230.273C267.358 230.273 265.642 229.649 264.446 228.401C263.25 227.153 262.652 225.359 262.652 223.019V213.971H258.869V210.305H262.652V205.508L267.527 203.87V210.305H272.753V213.971H267.527ZM294.238 210.305V230H289.48V226.958C288.856 228.05 288.024 228.882 286.984 229.454C285.944 230.026 284.748 230.312 283.396 230.312C278.586 230.312 276.181 227.608 276.181 222.2V210.305H281.017V222.239C281.017 223.669 281.303 224.722 281.875 225.398C282.473 226.074 283.383 226.412 284.605 226.412C286.035 226.412 287.179 225.944 288.037 225.008C288.895 224.072 289.324 222.824 289.324 221.264V210.305H294.238ZM306.941 230.312C303.379 230.312 300.545 229.48 298.439 227.816L299.804 224.384C301.91 225.944 304.315 226.724 307.019 226.724C308.189 226.724 309.086 226.529 309.71 226.139C310.36 225.749 310.685 225.203 310.685 224.501C310.685 223.903 310.464 223.435 310.022 223.097C309.58 222.733 308.826 222.421 307.76 222.161L304.484 221.42C300.896 220.64 299.102 218.807 299.102 215.921C299.102 214.725 299.44 213.672 300.116 212.762C300.792 211.826 301.741 211.098 302.963 210.578C304.185 210.058 305.602 209.798 307.214 209.798C308.618 209.798 309.97 210.019 311.27 210.461C312.57 210.877 313.714 211.488 314.702 212.294L313.259 215.609C311.283 214.153 309.255 213.425 307.175 213.425C306.057 213.425 305.186 213.633 304.562 214.049C303.938 214.465 303.626 215.037 303.626 215.765C303.626 216.337 303.808 216.792 304.172 217.13C304.562 217.468 305.212 217.754 306.122 217.988L309.476 218.729C311.426 219.171 312.843 219.86 313.727 220.796C314.637 221.706 315.092 222.902 315.092 224.384C315.092 226.204 314.364 227.647 312.908 228.713C311.452 229.779 309.463 230.312 306.941 230.312ZM337.571 230.312C334.009 230.312 331.175 229.48 329.069 227.816L330.434 224.384C332.54 225.944 334.945 226.724 337.649 226.724C338.819 226.724 339.716 226.529 340.34 226.139C340.99 225.749 341.315 225.203 341.315 224.501C341.315 223.903 341.094 223.435 340.652 223.097C340.21 222.733 339.456 222.421 338.39 222.161L335.114 221.42C331.526 220.64 329.732 218.807 329.732 215.921C329.732 214.725 330.07 213.672 330.746 212.762C331.422 211.826 332.371 211.098 333.593 210.578C334.815 210.058 336.232 209.798 337.844 209.798C339.248 209.798 340.6 210.019 341.9 210.461C343.2 210.877 344.344 211.488 345.332 212.294L343.889 215.609C341.913 214.153 339.885 213.425 337.805 213.425C336.687 213.425 335.816 213.633 335.192 214.049C334.568 214.465 334.256 215.037 334.256 215.765C334.256 216.337 334.438 216.792 334.802 217.13C335.192 217.468 335.842 217.754 336.752 217.988L340.106 218.729C342.056 219.171 343.473 219.86 344.357 220.796C345.267 221.706 345.722 222.902 345.722 224.384C345.722 226.204 344.994 227.647 343.538 228.713C342.082 229.779 340.093 230.312 337.571 230.312ZM367.327 220.406H353.755C353.859 222.512 354.379 224.072 355.315 225.086C356.277 226.074 357.694 226.568 359.566 226.568C361.724 226.568 363.726 225.866 365.572 224.462L366.976 227.816C366.04 228.57 364.883 229.181 363.505 229.649C362.153 230.091 360.775 230.312 359.371 230.312C356.147 230.312 353.612 229.402 351.766 227.582C349.92 225.762 348.997 223.266 348.997 220.094C348.997 218.092 349.4 216.311 350.206 214.751C351.012 213.191 352.143 211.982 353.599 211.124C355.055 210.24 356.706 209.798 358.552 209.798C361.256 209.798 363.388 210.682 364.948 212.45C366.534 214.192 367.327 216.597 367.327 219.665V220.406ZM358.669 213.308C357.369 213.308 356.303 213.698 355.471 214.478C354.665 215.232 354.145 216.337 353.911 217.793H363.076C362.92 216.311 362.465 215.193 361.711 214.439C360.983 213.685 359.969 213.308 358.669 213.308ZM390.682 210.305V229.376C390.682 232.444 389.837 234.771 388.147 236.357C386.457 237.943 383.974 238.736 380.698 238.736C377.656 238.736 374.978 238.099 372.664 236.825L373.444 233.12C375.836 234.368 378.215 234.992 380.581 234.992C384.091 234.992 385.846 233.25 385.846 229.766V225.866C385.248 226.932 384.377 227.803 383.233 228.479C382.089 229.129 380.802 229.454 379.372 229.454C377.656 229.454 376.122 229.051 374.77 228.245C373.444 227.413 372.404 226.256 371.65 224.774C370.922 223.266 370.558 221.55 370.558 219.626C370.558 217.702 370.922 215.999 371.65 214.517C372.404 213.009 373.444 211.852 374.77 211.046C376.122 210.214 377.656 209.798 379.372 209.798C380.828 209.798 382.115 210.11 383.233 210.734C384.377 211.332 385.248 212.177 385.846 213.269V210.305H390.682ZM380.659 225.632C382.271 225.632 383.532 225.099 384.442 224.033C385.378 222.967 385.846 221.498 385.846 219.626C385.846 217.754 385.391 216.285 384.481 215.219C383.571 214.153 382.297 213.62 380.659 213.62C379.047 213.62 377.773 214.153 376.837 215.219C375.927 216.285 375.472 217.754 375.472 219.626C375.472 221.498 375.927 222.967 376.837 224.033C377.773 225.099 379.047 225.632 380.659 225.632ZM414.084 210.305V230H409.326V226.958C408.702 228.05 407.87 228.882 406.83 229.454C405.79 230.026 404.594 230.312 403.242 230.312C398.432 230.312 396.027 227.608 396.027 222.2V210.305H400.863V222.239C400.863 223.669 401.149 224.722 401.721 225.398C402.319 226.074 403.229 226.412 404.451 226.412C405.881 226.412 407.025 225.944 407.883 225.008C408.741 224.072 409.17 222.824 409.17 221.264V210.305H414.084ZM419.571 210.305H424.407V230H419.571V210.305ZM424.68 201.374V206.171H419.259V201.374H424.68ZM448.772 201.296V230H443.975V226.841C443.377 227.933 442.519 228.791 441.401 229.415C440.283 230.013 439.009 230.312 437.579 230.312C435.889 230.312 434.381 229.883 433.055 229.025C431.729 228.167 430.689 226.958 429.935 225.398C429.207 223.812 428.843 222.005 428.843 219.977C428.843 217.949 429.207 216.168 429.935 214.634C430.663 213.1 431.69 211.917 433.016 211.085C434.342 210.227 435.863 209.798 437.579 209.798C438.983 209.798 440.231 210.097 441.323 210.695C442.441 211.267 443.299 212.086 443.897 213.152V201.296H448.772ZM438.866 226.49C440.478 226.49 441.726 225.931 442.61 224.813C443.52 223.695 443.975 222.109 443.975 220.055C443.975 218.001 443.533 216.415 442.649 215.297C441.765 214.179 440.517 213.62 438.905 213.62C437.267 213.62 435.993 214.179 435.083 215.297C434.199 216.389 433.757 217.949 433.757 219.977C433.757 222.031 434.199 223.63 435.083 224.774C435.993 225.918 437.254 226.49 438.866 226.49ZM463.208 230.312C461.206 230.312 459.438 229.896 457.904 229.064C456.396 228.232 455.226 227.049 454.394 225.515C453.588 223.955 453.185 222.135 453.185 220.055C453.185 217.975 453.588 216.168 454.394 214.634C455.226 213.074 456.396 211.878 457.904 211.046C459.438 210.214 461.206 209.798 463.208 209.798C465.184 209.798 466.926 210.214 468.434 211.046C469.942 211.878 471.099 213.074 471.905 214.634C472.737 216.168 473.153 217.975 473.153 220.055C473.153 222.135 472.737 223.955 471.905 225.515C471.099 227.049 469.942 228.232 468.434 229.064C466.926 229.896 465.184 230.312 463.208 230.312ZM463.169 226.49C464.833 226.49 466.094 225.957 466.952 224.891C467.836 223.799 468.278 222.187 468.278 220.055C468.278 217.949 467.836 216.35 466.952 215.258C466.068 214.14 464.82 213.581 463.208 213.581C461.57 213.581 460.309 214.14 459.425 215.258C458.541 216.35 458.099 217.949 458.099 220.055C458.099 222.187 458.528 223.799 459.386 224.891C460.27 225.957 461.531 226.49 463.169 226.49ZM488.16 209.837C488.914 209.837 489.564 209.941 490.11 210.149L490.071 214.595C489.239 214.257 488.381 214.088 487.497 214.088C485.833 214.088 484.559 214.569 483.675 215.531C482.817 216.493 482.388 217.767 482.388 219.353V230H477.552V215.882C477.552 213.802 477.448 211.943 477.24 210.305H481.803L482.193 213.776C482.687 212.502 483.467 211.527 484.533 210.851C485.599 210.175 486.808 209.837 488.16 209.837ZM509.877 220.406H496.305C496.409 222.512 496.929 224.072 497.865 225.086C498.827 226.074 500.244 226.568 502.116 226.568C504.274 226.568 506.276 225.866 508.122 224.462L509.526 227.816C508.59 228.57 507.433 229.181 506.055 229.649C504.703 230.091 503.325 230.312 501.921 230.312C498.697 230.312 496.162 229.402 494.316 227.582C492.47 225.762 491.547 223.266 491.547 220.094C491.547 218.092 491.95 216.311 492.756 214.751C493.562 213.191 494.693 211.982 496.149 211.124C497.605 210.24 499.256 209.798 501.102 209.798C503.806 209.798 505.938 210.682 507.498 212.45C509.084 214.192 509.877 216.597 509.877 219.665V220.406ZM501.219 213.308C499.919 213.308 498.853 213.698 498.021 214.478C497.215 215.232 496.695 216.337 496.461 217.793H505.626C505.47 216.311 505.015 215.193 504.261 214.439C503.533 213.685 502.519 213.308 501.219 213.308ZM521.415 230.312C517.853 230.312 515.019 229.48 512.913 227.816L514.278 224.384C516.384 225.944 518.789 226.724 521.493 226.724C522.663 226.724 523.56 226.529 524.184 226.139C524.834 225.749 525.159 225.203 525.159 224.501C525.159 223.903 524.938 223.435 524.496 223.097C524.054 222.733 523.3 222.421 522.234 222.161L518.958 221.42C515.37 220.64 513.576 218.807 513.576 215.921C513.576 214.725 513.914 213.672 514.59 212.762C515.266 211.826 516.215 211.098 517.437 210.578C518.659 210.058 520.076 209.798 521.688 209.798C523.092 209.798 524.444 210.019 525.744 210.461C527.044 210.877 528.188 211.488 529.176 212.294L527.733 215.609C525.757 214.153 523.729 213.425 521.649 213.425C520.531 213.425 519.66 213.633 519.036 214.049C518.412 214.465 518.1 215.037 518.1 215.765C518.1 216.337 518.282 216.792 518.646 217.13C519.036 217.468 519.686 217.754 520.596 217.988L523.95 218.729C525.9 219.171 527.317 219.86 528.201 220.796C529.111 221.706 529.566 222.902 529.566 224.384C529.566 226.204 528.838 227.647 527.382 228.713C525.926 229.779 523.937 230.312 521.415 230.312ZM102.489 248.296V277H97.692V273.841C97.094 274.933 96.236 275.791 95.118 276.415C94 277.013 92.726 277.312 91.296 277.312C89.606 277.312 88.098 276.883 86.772 276.025C85.446 275.167 84.406 273.958 83.652 272.398C82.924 270.812 82.56 269.005 82.56 266.977C82.56 264.949 82.924 263.168 83.652 261.634C84.38 260.1 85.407 258.917 86.733 258.085C88.059 257.227 89.58 256.798 91.296 256.798C92.7 256.798 93.948 257.097 95.04 257.695C96.158 258.267 97.016 259.086 97.614 260.152V248.296H102.489ZM92.583 273.49C94.195 273.49 95.443 272.931 96.327 271.813C97.237 270.695 97.692 269.109 97.692 267.055C97.692 265.001 97.25 263.415 96.366 262.297C95.482 261.179 94.234 260.62 92.622 260.62C90.984 260.62 89.71 261.179 88.8 262.297C87.916 263.389 87.474 264.949 87.474 266.977C87.474 269.031 87.916 270.63 88.8 271.774C89.71 272.918 90.971 273.49 92.583 273.49ZM125.231 267.406H111.659C111.763 269.512 112.283 271.072 113.219 272.086C114.181 273.074 115.598 273.568 117.47 273.568C119.628 273.568 121.63 272.866 123.476 271.462L124.88 274.816C123.944 275.57 122.787 276.181 121.409 276.649C120.057 277.091 118.679 277.312 117.275 277.312C114.051 277.312 111.516 276.402 109.67 274.582C107.824 272.762 106.901 270.266 106.901 267.094C106.901 265.092 107.304 263.311 108.11 261.751C108.916 260.191 110.047 258.982 111.503 258.124C112.959 257.24 114.61 256.798 116.456 256.798C119.16 256.798 121.292 257.682 122.852 259.45C124.438 261.192 125.231 263.597 125.231 266.665V267.406ZM116.573 260.308C115.273 260.308 114.207 260.698 113.375 261.478C112.569 262.232 112.049 263.337 111.815 264.793H120.98C120.824 263.311 120.369 262.193 119.615 261.439C118.887 260.685 117.873 260.308 116.573 260.308ZM149.773 252.157C147.667 252.157 146.614 253.314 146.614 255.628V257.305H151.021V260.971H146.614V277H141.739V260.971H137.995V257.305H141.739V255.394C141.739 253.054 142.324 251.26 143.494 250.012C144.69 248.738 146.393 248.101 148.603 248.101C149.825 248.101 150.852 248.257 151.684 248.569V252.43C150.956 252.248 150.319 252.157 149.773 252.157ZM163.708 277.312C161.706 277.312 159.938 276.896 158.404 276.064C156.896 275.232 155.726 274.049 154.894 272.515C154.088 270.955 153.685 269.135 153.685 267.055C153.685 264.975 154.088 263.168 154.894 261.634C155.726 260.074 156.896 258.878 158.404 258.046C159.938 257.214 161.706 256.798 163.708 256.798C165.684 256.798 167.426 257.214 168.934 258.046C170.442 258.878 171.599 260.074 172.405 261.634C173.237 263.168 173.653 264.975 173.653 267.055C173.653 269.135 173.237 270.955 172.405 272.515C171.599 274.049 170.442 275.232 168.934 276.064C167.426 276.896 165.684 277.312 163.708 277.312ZM163.669 273.49C165.333 273.49 166.594 272.957 167.452 271.891C168.336 270.799 168.778 269.187 168.778 267.055C168.778 264.949 168.336 263.35 167.452 262.258C166.568 261.14 165.32 260.581 163.708 260.581C162.07 260.581 160.809 261.14 159.925 262.258C159.041 263.35 158.599 264.949 158.599 267.055C158.599 269.187 159.028 270.799 159.886 271.891C160.77 272.957 162.031 273.49 163.669 273.49ZM188.66 256.837C189.414 256.837 190.064 256.941 190.61 257.149L190.571 261.595C189.739 261.257 188.881 261.088 187.997 261.088C186.333 261.088 185.059 261.569 184.175 262.531C183.317 263.493 182.888 264.767 182.888 266.353V277H178.052V262.882C178.052 260.802 177.948 258.943 177.74 257.305H182.303L182.693 260.776C183.187 259.502 183.967 258.527 185.033 257.851C186.099 257.175 187.308 256.837 188.66 256.837ZM216.763 256.798C218.999 256.798 220.663 257.474 221.755 258.826C222.847 260.152 223.393 262.18 223.393 264.91V277H218.518V265.066C218.518 263.506 218.258 262.388 217.738 261.712C217.244 261.01 216.412 260.659 215.242 260.659C213.89 260.659 212.824 261.14 212.044 262.102C211.29 263.038 210.913 264.338 210.913 266.002V277H206.038V265.066C206.038 263.532 205.765 262.414 205.219 261.712C204.699 261.01 203.867 260.659 202.723 260.659C201.371 260.659 200.305 261.14 199.525 262.102C198.745 263.038 198.355 264.338 198.355 266.002V277H193.519V262.882C193.519 260.802 193.415 258.943 193.207 257.305H197.77L198.121 260.425C198.693 259.255 199.512 258.358 200.578 257.734C201.67 257.11 202.918 256.798 204.322 256.798C207.338 256.798 209.301 258.046 210.211 260.542C210.835 259.372 211.719 258.462 212.863 257.812C214.033 257.136 215.333 256.798 216.763 256.798ZM247.628 257.305V277H242.831V273.841C242.233 274.933 241.375 275.791 240.257 276.415C239.139 277.013 237.865 277.312 236.435 277.312C234.719 277.312 233.198 276.896 231.872 276.064C230.546 275.232 229.519 274.049 228.791 272.515C228.063 270.981 227.699 269.2 227.699 267.172C227.699 265.144 228.063 263.35 228.791 261.79C229.545 260.204 230.585 258.982 231.911 258.124C233.237 257.24 234.745 256.798 236.435 256.798C237.865 256.798 239.139 257.11 240.257 257.734C241.375 258.332 242.233 259.177 242.831 260.269V257.305H247.628ZM237.761 273.49C239.373 273.49 240.621 272.931 241.505 271.813C242.389 270.695 242.831 269.122 242.831 267.094C242.831 265.014 242.389 263.415 241.505 262.297C240.621 261.179 239.36 260.62 237.722 260.62C236.11 260.62 234.849 261.205 233.939 262.375C233.055 263.519 232.613 265.118 232.613 267.172C232.613 269.2 233.055 270.76 233.939 271.852C234.849 272.944 236.123 273.49 237.761 273.49ZM271.245 277.312C267.683 277.312 264.849 276.48 262.743 274.816L264.108 271.384C266.214 272.944 268.619 273.724 271.323 273.724C272.493 273.724 273.39 273.529 274.014 273.139C274.664 272.749 274.989 272.203 274.989 271.501C274.989 270.903 274.768 270.435 274.326 270.097C273.884 269.733 273.13 269.421 272.064 269.161L268.788 268.42C265.2 267.64 263.406 265.807 263.406 262.921C263.406 261.725 263.744 260.672 264.42 259.762C265.096 258.826 266.045 258.098 267.267 257.578C268.489 257.058 269.906 256.798 271.518 256.798C272.922 256.798 274.274 257.019 275.574 257.461C276.874 257.877 278.018 258.488 279.006 259.294L277.563 262.609C275.587 261.153 273.559 260.425 271.479 260.425C270.361 260.425 269.49 260.633 268.866 261.049C268.242 261.465 267.93 262.037 267.93 262.765C267.93 263.337 268.112 263.792 268.476 264.13C268.866 264.468 269.516 264.754 270.426 264.988L273.78 265.729C275.73 266.171 277.147 266.86 278.031 267.796C278.941 268.706 279.396 269.902 279.396 271.384C279.396 273.204 278.668 274.647 277.212 275.713C275.756 276.779 273.767 277.312 271.245 277.312ZM301.001 267.406H287.429C287.533 269.512 288.053 271.072 288.989 272.086C289.951 273.074 291.368 273.568 293.24 273.568C295.398 273.568 297.4 272.866 299.246 271.462L300.65 274.816C299.714 275.57 298.557 276.181 297.179 276.649C295.827 277.091 294.449 277.312 293.045 277.312C289.821 277.312 287.286 276.402 285.44 274.582C283.594 272.762 282.671 270.266 282.671 267.094C282.671 265.092 283.074 263.311 283.88 261.751C284.686 260.191 285.817 258.982 287.273 258.124C288.729 257.24 290.38 256.798 292.226 256.798C294.93 256.798 297.062 257.682 298.622 259.45C300.208 261.192 301.001 263.597 301.001 266.665V267.406ZM292.343 260.308C291.043 260.308 289.977 260.698 289.145 261.478C288.339 262.232 287.819 263.337 287.585 264.793H296.75C296.594 263.311 296.139 262.193 295.385 261.439C294.657 260.685 293.643 260.308 292.343 260.308ZM324.356 257.305V276.376C324.356 279.444 323.511 281.771 321.821 283.357C320.131 284.943 317.648 285.736 314.372 285.736C311.33 285.736 308.652 285.099 306.338 283.825L307.118 280.12C309.51 281.368 311.889 281.992 314.255 281.992C317.765 281.992 319.52 280.25 319.52 276.766V272.866C318.922 273.932 318.051 274.803 316.907 275.479C315.763 276.129 314.476 276.454 313.046 276.454C311.33 276.454 309.796 276.051 308.444 275.245C307.118 274.413 306.078 273.256 305.324 271.774C304.596 270.266 304.232 268.55 304.232 266.626C304.232 264.702 304.596 262.999 305.324 261.517C306.078 260.009 307.118 258.852 308.444 258.046C309.796 257.214 311.33 256.798 313.046 256.798C314.502 256.798 315.789 257.11 316.907 257.734C318.051 258.332 318.922 259.177 319.52 260.269V257.305H324.356ZM314.333 272.632C315.945 272.632 317.206 272.099 318.116 271.033C319.052 269.967 319.52 268.498 319.52 266.626C319.52 264.754 319.065 263.285 318.155 262.219C317.245 261.153 315.971 260.62 314.333 260.62C312.721 260.62 311.447 261.153 310.511 262.219C309.601 263.285 309.146 264.754 309.146 266.626C309.146 268.498 309.601 269.967 310.511 271.033C311.447 272.099 312.721 272.632 314.333 272.632ZM347.758 257.305V277H343V273.958C342.376 275.05 341.544 275.882 340.504 276.454C339.464 277.026 338.268 277.312 336.916 277.312C332.106 277.312 329.701 274.608 329.701 269.2V257.305H334.537V269.239C334.537 270.669 334.823 271.722 335.395 272.398C335.993 273.074 336.903 273.412 338.125 273.412C339.555 273.412 340.699 272.944 341.557 272.008C342.415 271.072 342.844 269.824 342.844 268.264V257.305H347.758ZM363.854 256.837C364.608 256.837 365.258 256.941 365.804 257.149L365.765 261.595C364.933 261.257 364.075 261.088 363.191 261.088C361.527 261.088 360.253 261.569 359.369 262.531C358.511 263.493 358.082 264.767 358.082 266.353V277H353.246V262.882C353.246 260.802 353.142 258.943 352.934 257.305H357.497L357.887 260.776C358.381 259.502 359.161 258.527 360.227 257.851C361.293 257.175 362.502 256.837 363.854 256.837ZM387.169 257.305V277H382.372V273.841C381.774 274.933 380.916 275.791 379.798 276.415C378.68 277.013 377.406 277.312 375.976 277.312C374.26 277.312 372.739 276.896 371.413 276.064C370.087 275.232 369.06 274.049 368.332 272.515C367.604 270.981 367.24 269.2 367.24 267.172C367.24 265.144 367.604 263.35 368.332 261.79C369.086 260.204 370.126 258.982 371.452 258.124C372.778 257.24 374.286 256.798 375.976 256.798C377.406 256.798 378.68 257.11 379.798 257.734C380.916 258.332 381.774 259.177 382.372 260.269V257.305H387.169ZM377.302 273.49C378.914 273.49 380.162 272.931 381.046 271.813C381.93 270.695 382.372 269.122 382.372 267.094C382.372 265.014 381.93 263.415 381.046 262.297C380.162 261.179 378.901 260.62 377.263 260.62C375.651 260.62 374.39 261.205 373.48 262.375C372.596 263.519 372.154 265.118 372.154 267.172C372.154 269.2 372.596 270.76 373.48 271.852C374.39 272.944 375.664 273.49 377.302 273.49Z" fill="#215E99"/>
<path d="M135.333 141.242C148.121 136.314 154.493 121.952 149.565 109.163C144.637 96.3745 130.274 90.0025 117.486 94.9308C104.697 99.8591 98.3253 114.221 103.254 127.01C108.182 139.798 122.544 146.17 135.333 141.242Z" fill="#215E99"/>
<path d="M252.033 133.464C260.089 122.376 257.631 106.858 246.543 98.8026C235.456 90.7471 219.938 93.205 211.882 104.292C203.827 115.38 206.284 130.898 217.372 138.954C228.459 147.009 243.978 144.551 252.033 133.464Z" fill="#215E99"/>
<path d="M232.159 94.0792L126.592 93.2915L126.222 142.92L231.789 143.708L232.159 94.0792Z" fill="#215E99"/>
<path d="M125.511 124.515C129.156 111.303 121.401 97.6385 108.19 93.9934C94.979 90.3482 81.3142 98.103 77.669 111.314C74.0238 124.525 81.7786 138.19 94.9898 141.835C108.201 145.481 121.866 137.726 125.511 124.515Z" fill="#EC552F"/>
<path d="M135.005 111.528L134.976 113.849C135.758 112.104 137.114 111.26 139.038 111.286C140.726 111.284 142.017 111.907 142.937 113.118C143.857 114.33 144.315 116.177 144.274 118.633C144.264 121.084 143.723 122.891 142.719 124.076C141.71 125.229 140.179 125.803 138.19 125.787C137.261 125.768 136.547 125.65 136.081 125.426C135.615 125.201 135.226 124.833 134.95 124.347L134.894 131.936L138.673 131.966L138.658 132.498L127.822 132.427L127.837 131.895L129.46 131.903L129.594 112.054L128.035 112.036L128.05 111.504L135.005 111.528ZM138.375 113.576C138.198 112.876 137.813 112.539 137.249 112.529C136.685 112.519 136.182 112.897 135.73 113.598C135.283 114.33 135.039 115.296 135.035 116.521L134.991 121.891C134.99 122.718 135.14 123.456 135.463 124.034C135.786 124.612 136.268 124.933 136.929 124.927C137.558 124.927 138.018 124.49 138.251 123.659C138.483 122.827 138.603 121.286 138.631 119.163L138.654 117.636C138.665 115.615 138.552 114.276 138.375 113.576Z" fill="#FFF7ED"/>
<path d="M146.477 123.977C145.251 122.715 144.636 120.926 144.634 118.609C144.663 116.287 145.339 114.492 146.693 113.218C148.052 111.977 149.938 111.347 152.357 111.361C154.776 111.375 156.593 111.981 157.771 113.152C158.95 114.322 159.527 116.085 159.508 118.471C159.468 123.443 156.98 125.922 152.009 125.882C149.558 125.873 147.735 125.235 146.477 123.977ZM153.864 119.828L153.868 117.345C153.867 115.458 153.781 114.082 153.605 113.183C153.403 112.321 152.933 111.866 152.208 111.881C151.778 111.883 151.433 112.004 151.173 112.244C150.913 112.484 150.711 112.88 150.604 113.459C150.414 114.35 150.328 115.688 150.314 117.478L150.311 119.762C150.283 121.885 150.354 123.165 150.49 123.607C150.626 124.049 150.747 124.394 150.89 124.669C151.096 125.133 151.529 125.362 152.126 125.367C152.889 125.378 153.382 124.936 153.641 124.068C153.77 123.418 153.846 122.016 153.864 119.828Z" fill="#FFF7ED"/>
<path d="M160.195 125.943L160.226 120.708L160.592 120.716C161.094 122.424 161.745 123.612 162.616 124.301C163.454 124.996 164.537 125.354 165.827 125.349C167.816 125.365 168.81 124.744 168.842 123.481C168.852 122.917 168.591 122.527 168.115 122.239C167.35 121.797 166.369 121.456 165.205 121.21C163.891 120.855 162.788 120.368 161.868 119.786C160.793 119.062 160.286 117.951 160.277 116.429C160.268 114.908 160.772 113.703 161.72 112.791C162.668 111.88 163.924 111.449 165.482 111.467C166.444 111.48 167.41 111.725 168.438 112.158C168.797 112.333 169.103 112.383 169.27 112.39C169.469 112.392 169.625 112.334 169.766 112.179C169.912 112.057 170.07 111.8 170.277 111.436L170.61 111.45L170.59 115.921L170.225 115.913C169.257 113.352 167.697 112.076 165.612 112.076C164.682 112.057 164.014 112.229 163.566 112.532C163.117 112.835 162.888 113.269 162.895 113.731C162.909 114.027 162.944 114.253 163.104 114.426C163.232 114.604 163.349 114.718 163.429 114.805C163.509 114.891 163.621 114.973 163.798 115.044C163.98 115.148 164.119 115.192 164.226 115.241C164.333 115.29 164.51 115.362 164.752 115.423C164.998 115.516 165.17 115.555 165.304 115.567C166.618 115.922 167.589 116.198 168.157 116.439C168.724 116.68 169.303 116.986 169.821 117.334C170.901 118.09 171.423 119.298 171.415 120.922C171.413 122.577 170.914 123.815 169.923 124.667C168.933 125.519 167.607 125.927 165.914 125.897C164.689 125.893 163.551 125.61 162.401 125.031C162.176 124.868 161.999 124.796 161.833 124.79C161.403 124.791 160.997 125.154 160.577 125.849L160.195 125.943Z" fill="#FFF7ED"/>
<path d="M171.494 111.806L178.653 111.864L178.561 125.285L180.184 125.292L180.169 125.824L171.484 125.744L171.499 125.212L173.122 125.219L173.232 112.325L171.506 112.301L171.494 111.806ZM175.945 109.81C174.918 109.807 174.179 109.527 173.731 109.002C173.284 108.477 173.08 107.814 173.091 107.051C173.098 106.256 173.329 105.623 173.811 105.117C174.294 104.61 175.016 104.363 176.01 104.371C176.972 104.384 177.739 104.627 178.24 105.077C178.742 105.527 178.979 106.185 178.982 107.045C178.986 107.905 178.728 108.575 178.246 109.082C177.731 109.593 176.971 109.813 175.945 109.81Z" fill="#FFF7ED"/>
<path d="M181.558 121.632L181.621 112.42L179.998 112.412L180.013 111.88L181.636 111.888L181.667 108.11L187.122 106.815L187.07 111.921L190.881 111.946L190.866 112.478L187.055 112.453L186.997 122.327C186.979 123.256 187.081 123.902 187.25 124.339C187.418 124.776 187.814 124.978 188.411 124.983C189.007 124.987 189.526 124.707 189.961 124.108C190.401 123.542 190.703 122.733 190.84 121.718L191.345 121.77C191.194 123.118 190.734 124.184 190.029 124.958C189.324 125.732 188.16 126.115 186.537 126.107C184.913 126.099 183.669 125.767 182.836 125.104C181.948 124.517 181.528 123.325 181.558 121.632Z" fill="#FFF7ED"/>
<path d="M190.849 111.951L198.008 112.009L197.916 125.43L199.539 125.438L199.524 125.97L190.838 125.889L190.853 125.357L192.477 125.364L192.554 112.476L190.829 112.451L190.849 111.951ZM195.267 109.96C194.24 109.958 193.501 109.677 193.054 109.152C192.606 108.627 192.402 107.965 192.414 107.202C192.42 106.406 192.651 105.774 193.133 105.267C193.616 104.76 194.338 104.513 195.332 104.521C196.294 104.535 197.061 104.777 197.563 105.227C198.064 105.678 198.301 106.335 198.305 107.195C198.308 108.055 198.05 108.725 197.568 109.232C197.085 109.739 196.326 109.958 195.267 109.96Z" fill="#FFF7ED"/>
<path d="M198.321 112.522L198.336 111.99L207.086 112.061L207.071 112.593L205.217 112.589L208.648 122.34L211.881 112.659L209.925 112.637L209.94 112.105L213.885 112.143L213.87 112.675L212.58 112.68L208.145 126.061L204.797 126.028L199.487 112.569L198.321 112.522Z" fill="#FFF7ED"/>
<path d="M213.353 112.128L220.512 112.185L220.42 125.606L222.043 125.614L222.028 126.146L213.342 126.065L213.357 125.533L214.98 125.541L215.058 112.652L213.332 112.627L213.353 112.128ZM217.803 110.132C216.777 110.129 216.037 109.849 215.59 109.324C215.142 108.799 214.938 108.136 214.95 107.373C214.956 106.577 215.187 105.945 215.669 105.438C216.152 104.931 216.874 104.685 217.869 104.693C218.831 104.706 219.597 104.949 220.099 105.399C220.6 105.849 220.837 106.507 220.841 107.367C220.845 108.227 220.587 108.896 220.104 109.403C219.584 109.883 218.83 110.135 217.803 110.132Z" fill="#FFF7ED"/>
<path d="M223.416 121.954L223.48 112.741L221.856 112.734L221.872 112.202L223.495 112.209L223.525 108.431L228.981 107.137L228.934 112.275L232.744 112.3L232.729 112.832L228.919 112.807L228.861 122.68C228.842 123.61 228.945 124.256 229.113 124.693C229.282 125.129 229.678 125.331 230.274 125.336C230.871 125.341 231.389 125.06 231.824 124.462C232.264 123.896 232.566 123.087 232.703 122.072L233.208 122.124C233.057 123.472 232.597 124.538 231.892 125.312C231.187 126.085 230.023 126.468 228.4 126.461C226.777 126.453 225.533 126.12 224.699 125.458C223.834 124.801 223.419 123.642 223.416 121.954Z" fill="#FFF7ED"/>
<path d="M234.785 124.556C233.554 123.261 232.934 121.439 232.931 119.123C232.961 116.801 233.674 115.033 235.103 113.813C236.531 112.594 238.321 111.98 240.508 111.997C244.948 112.022 247.058 114.27 246.835 118.708L238.584 118.658L238.564 119.786C238.538 121.71 238.801 123.158 239.25 124.113C239.736 125.096 240.576 125.591 241.802 125.596C244.054 125.603 245.552 124.406 246.265 122.009L246.775 122.094C246.403 123.51 245.712 124.579 244.744 125.362C243.775 126.144 242.31 126.508 240.391 126.514C237.913 126.543 236.021 125.883 234.785 124.556ZM238.594 118.093L241.609 118.112L241.616 116.688C241.628 115.097 241.524 114.021 241.367 113.45C241.179 112.884 240.832 112.575 240.267 112.565C239.703 112.555 239.287 112.853 239.024 113.49C238.755 114.096 238.628 115.175 238.6 116.669L238.594 118.093Z" fill="#FFF7ED"/>
<path d="M92.1099 105.081L92.0434 115.32C92.8041 113.644 94.0631 112.815 95.8529 112.83C99.4971 112.848 101.31 115.309 101.282 120.146C101.278 122.629 100.737 124.436 99.7326 125.622C98.7236 126.774 97.1924 127.348 95.2038 127.332C94.1771 127.329 93.4207 127.151 92.8749 126.84C92.3292 126.529 91.9788 125.989 91.8017 125.289L91.5782 127.012L84.9187 126.975L84.9338 126.443L86.557 126.45L86.7204 105.537L85.0972 105.53L85.1122 104.998L92.1099 105.081ZM95.356 115.126C95.1789 114.426 94.7946 114.09 94.2303 114.08C93.666 114.07 93.158 114.415 92.7062 115.116C92.2544 115.816 92.0101 116.782 92.0056 118.007L91.9725 123.441C91.9712 124.269 92.1211 125.006 92.4766 125.579C92.7998 126.157 93.3133 126.473 93.9422 126.472C94.5711 126.472 94.9992 126.04 95.2639 125.204C95.4913 124.34 95.6163 122.831 95.6442 120.708L95.6673 119.182C95.651 117.198 95.5654 115.821 95.356 115.126Z" fill="#215E99"/>
<path d="M103.416 125.469C102.184 124.174 101.565 122.352 101.562 120.035C101.592 117.714 102.305 115.946 103.733 114.726C105.162 113.507 106.952 112.893 109.139 112.91C113.579 112.935 115.689 115.183 115.465 119.621L107.215 119.57L107.195 120.699C107.169 122.623 107.399 124.076 107.881 125.026C108.367 126.008 109.207 126.504 110.4 126.514C112.652 126.521 114.151 125.324 114.864 122.927L115.374 123.012C115.002 124.428 114.311 125.497 113.342 126.28C112.374 127.062 110.909 127.426 108.99 127.432C106.544 127.456 104.684 126.79 103.416 125.469ZM107.262 119.033L110.278 119.052L110.284 117.628C110.297 116.037 110.225 114.956 110.036 114.39C109.847 113.824 109.5 113.515 108.936 113.505C108.371 113.495 107.955 113.793 107.692 114.43C107.424 115.036 107.292 116.083 107.269 117.609L107.262 119.033Z" fill="#215E99"/>
</g>
<defs>
<filter id="filter0_d" x="-4" y="0" width="756" height="908" filterUnits="userSpaceOnUse" color-interpolation-filters="sRGB">
<feFlood flood-opacity="0" result="BackgroundImageFix"/>
<feColorMatrix in="SourceAlpha" type="matrix" values="0 0 0 0 0 0 0 0 0 0 0 0 0 0 0 0 0 0 127 0"/>
<feOffset dy="4"/>
<feGaussianBlur stdDeviation="2"/>
<feColorMatrix type="matrix" values="0 0 0 0 0 0 0 0 0 0 0 0 0 0 0 0 0 0 0.25 0"/>
<feBlend mode="normal" in2="BackgroundImageFix" result="effect1_dropShadow"/>
<feBlend mode="normal" in="SourceGraphic" in2="effect1_dropShadow" result="shape"/>
</filter>
</defs>
</svg>
