<svg width="240" height="96" viewBox="0 0 240 96" fill="none" xmlns="http://www.w3.org/2000/svg">
<path d="M82.164 73.9967C96.8943 68.3201 104.234 51.777 98.5572 37.0466C92.8806 22.3163 76.3375 14.9768 61.6071 20.6534C46.8768 26.3301 39.5373 42.8732 45.2139 57.6035C50.8906 72.3338 67.4337 79.6733 82.164 73.9967Z" fill="#215E99"/>
<path d="M216.584 65.0371C225.863 52.2662 223.032 34.3915 210.261 25.1129C197.49 15.8343 179.615 18.6654 170.337 31.4363C161.058 44.2072 163.889 62.0819 176.66 71.3605C189.431 80.6391 207.305 77.808 216.584 65.0371Z" fill="#215E99"/>
<path d="M193.692 19.6727L72.0956 18.7655L71.6691 75.9299L193.266 76.8372L193.692 19.6727Z" fill="#215E99"/>
<path d="M70.851 54.7288C75.0496 39.5116 66.1173 23.7719 50.9001 19.5733C35.683 15.3746 19.9433 24.3069 15.7446 39.5241C11.546 54.7413 20.4783 70.481 35.6955 74.6796C50.9127 78.8783 66.6523 69.946 70.851 54.7288Z" fill="#EC552F"/>
<path d="M81.7862 39.7704L81.7523 42.4448C82.6539 40.4337 84.2157 39.4619 86.4319 39.4922C88.376 39.4893 89.8623 40.2071 90.9221 41.6025C91.9819 42.9979 92.5096 45.1257 92.462 47.9547C92.4516 50.7778 91.828 52.8592 90.6717 54.2244C89.5094 55.5523 87.7457 56.2129 85.4551 56.1944C84.3842 56.1734 83.5619 56.0367 83.0253 55.7786C82.4888 55.5204 82.0402 55.0958 81.7228 54.536L81.6585 63.2775L86.0106 63.3126L85.9933 63.9254L73.5124 63.8433L73.5298 63.2305L75.3994 63.2394L75.553 40.3764L73.7577 40.3557L73.775 39.7429L81.7862 39.7704ZM85.6677 42.1297C85.4637 41.3232 85.021 40.9357 84.3711 40.9243C83.7211 40.9129 83.1418 41.3478 82.6214 42.1546C82.1069 42.9987 81.8255 44.1108 81.8203 45.5224L81.7704 51.707C81.7689 52.6604 81.9416 53.51 82.3139 54.1755C82.6862 54.841 83.2404 55.2107 84.002 55.2045C84.7264 55.2041 85.2567 54.7007 85.5244 53.7433C85.7922 52.7858 85.9303 51.01 85.9625 48.5647L85.989 46.8066C86.0016 44.4788 85.8717 42.9362 85.6677 42.1297Z" fill="#FFF7ED"/>
<path d="M95.0003 54.1107C93.588 52.6568 92.8803 50.5956 92.8771 47.9271C92.911 45.2528 93.6892 43.185 95.2489 41.7179C96.8144 40.288 98.9872 39.5626 101.773 39.5788C104.559 39.5951 106.652 40.2931 108.01 41.6413C109.367 42.9896 110.032 45.0195 110.009 47.7682C109.963 53.4947 107.098 56.3505 101.372 56.3043C98.5488 56.2939 96.4497 55.5588 95.0003 54.1107ZM103.508 49.3316L103.513 46.4713C103.512 44.2982 103.413 42.7125 103.211 41.6769C102.978 40.6844 102.437 40.16 101.601 40.178C101.106 40.1802 100.708 40.3194 100.409 40.5956C100.11 40.8718 99.8769 41.328 99.7539 41.9957C99.5351 43.0217 99.436 44.5625 99.4193 46.624L99.4167 49.2553C99.3846 51.7006 99.4655 53.1747 99.6224 53.6837C99.7793 54.1926 99.9185 54.59 100.083 54.9071C100.32 55.4414 100.82 55.7055 101.507 55.711C102.386 55.7243 102.953 55.215 103.252 54.2145C103.401 53.4665 103.488 51.8513 103.508 49.3316Z" fill="#FFF7ED"/>
<path d="M110.801 56.3741L110.837 50.3442L111.258 50.3538C111.836 52.3211 112.587 53.6892 113.59 54.4836C114.555 55.2838 115.802 55.6963 117.288 55.6897C119.579 55.7082 120.724 54.9931 120.76 53.5384C120.772 52.8885 120.472 52.4403 119.924 52.1077C119.043 51.5991 117.913 51.2061 116.571 50.9229C115.058 50.5145 113.787 49.9532 112.728 49.2822C111.49 48.4487 110.906 47.1686 110.895 45.4164C110.885 43.6642 111.465 42.2759 112.557 41.226C113.649 40.1761 115.096 39.6801 116.891 39.7008C117.999 39.7159 119.111 39.9973 120.296 40.496C120.709 40.6974 121.062 40.756 121.254 40.7637C121.483 40.7656 121.663 40.6989 121.825 40.5207C121.993 40.3797 122.175 40.0839 122.414 39.6649L122.798 39.6803L122.775 44.8313L122.354 44.8217C121.238 41.8718 119.442 40.4024 117.04 40.4016C115.969 40.3806 115.2 40.5787 114.683 40.9274C114.167 41.2761 113.903 41.7755 113.911 42.308C113.926 42.6487 113.968 42.909 114.152 43.1086C114.299 43.3141 114.434 43.4452 114.526 43.545C114.618 43.6448 114.747 43.7387 114.951 43.8209C115.161 43.9402 115.321 43.991 115.444 44.0477C115.568 44.1045 115.771 44.1866 116.049 44.2569C116.333 44.3645 116.531 44.4094 116.686 44.423C118.199 44.8315 119.317 45.1501 119.971 45.4278C120.625 45.7055 121.291 46.0575 121.889 46.4586C123.132 47.3292 123.734 48.7209 123.725 50.5906C123.722 52.4975 123.147 53.923 122.006 54.9044C120.865 55.8858 119.338 56.3564 117.388 56.3221C115.977 56.3169 114.667 55.9905 113.341 55.3236C113.083 55.1357 112.879 55.0536 112.687 55.0459C112.192 55.0481 111.724 55.4653 111.241 56.2663L110.801 56.3741Z" fill="#FFF7ED"/>
<path d="M123.816 40.091L132.062 40.1576L131.956 55.6162L133.826 55.6251L133.808 56.2379L123.804 56.1448L123.821 55.532L125.691 55.5409L125.817 40.6891L123.83 40.6607L123.816 40.091ZM128.942 37.7921C127.76 37.7887 126.908 37.4661 126.393 36.8614C125.878 36.2567 125.642 35.4933 125.656 34.6142C125.663 33.698 125.929 32.9696 126.485 32.3859C127.04 31.8022 127.872 31.5179 129.018 31.5272C130.126 31.5423 131.009 31.8219 131.587 32.3404C132.164 32.8589 132.437 33.6165 132.441 34.6071C132.446 35.5977 132.148 36.3692 131.593 36.9529C131 37.5425 130.125 37.7954 128.942 37.7921Z" fill="#FFF7ED"/>
<path d="M135.407 51.4093L135.481 40.7981L133.611 40.7892L133.628 40.1764L135.498 40.1853L135.533 35.8332L141.817 34.3423L141.757 40.2234L146.146 40.2527L146.129 40.8655L141.74 40.8362L141.673 52.209C141.652 53.2799 141.77 54.0238 141.964 54.5268C142.158 55.0299 142.614 55.2627 143.301 55.2682C143.988 55.2737 144.585 54.9504 145.086 54.261C145.593 53.6089 145.941 52.6768 146.099 51.5079L146.68 51.5683C146.507 53.1209 145.977 54.3487 145.165 55.2399C144.353 56.1311 143.012 56.5722 141.142 56.5633C139.273 56.5544 137.839 56.1714 136.88 55.4083C135.857 54.7314 135.373 53.3592 135.407 51.4093Z" fill="#FFF7ED"/>
<path d="M146.109 40.2585L154.355 40.325L154.249 55.7837L156.119 55.7926L156.102 56.4054L146.097 56.3123L146.115 55.6995L147.984 55.7084L148.073 40.8625L146.086 40.8341L146.109 40.2585ZM151.198 37.9655C150.016 37.9621 149.164 37.6395 148.649 37.0348C148.134 36.4301 147.898 35.6667 147.912 34.7876C147.919 33.8714 148.185 33.143 148.741 32.5593C149.296 31.9756 150.128 31.6913 151.274 31.7006C152.382 31.7157 153.265 31.9952 153.843 32.5138C154.42 33.0323 154.693 33.7898 154.697 34.7805C154.702 35.7711 154.404 36.5426 153.849 37.1263C153.293 37.71 152.418 37.9629 151.198 37.9655Z" fill="#FFF7ED"/>
<path d="M154.716 40.9162L154.733 40.3034L164.812 40.3847L164.795 40.9975L162.659 40.9926L166.611 52.2245L170.335 41.0732L168.082 41.0488L168.099 40.436L172.643 40.4788L172.626 41.0916L171.14 41.0982L166.031 56.5103L162.175 56.473L156.059 40.9703L154.716 40.9162Z" fill="#FFF7ED"/>
<path d="M172.03 40.4615L180.276 40.528L180.17 55.9867L182.04 55.9956L182.023 56.6084L172.018 56.5153L172.036 55.9025L173.905 55.9114L173.994 41.0655L172.007 41.0371L172.03 40.4615ZM177.157 38.1626C175.974 38.1592 175.122 37.8366 174.607 37.2319C174.092 36.6272 173.857 35.8638 173.87 34.9847C173.877 34.0685 174.143 33.3401 174.699 32.7564C175.255 32.1727 176.087 31.8884 177.232 31.8977C178.34 31.9128 179.223 32.1923 179.801 32.7109C180.379 33.2294 180.651 33.9869 180.656 34.9776C180.66 35.9682 180.363 36.7397 179.807 37.3234C179.208 37.8758 178.339 38.1659 177.157 38.1626Z" fill="#FFF7ED"/>
<path d="M183.622 51.7797L183.695 41.1685L181.825 41.1596L181.843 40.5469L183.712 40.5558L183.747 36.2036L190.031 34.7127L189.977 40.6311L194.367 40.6603L194.349 41.2731L189.96 41.2439L189.893 52.6166C189.872 53.6875 189.99 54.4314 190.184 54.9345C190.378 55.4375 190.834 55.6703 191.521 55.6758C192.208 55.6814 192.805 55.3581 193.306 54.6687C193.813 54.0165 194.161 53.0844 194.319 51.9156L194.901 51.976C194.727 53.5286 194.197 54.7564 193.385 55.6475C192.573 56.5387 191.232 56.9798 189.362 56.9709C187.493 56.9621 186.06 56.579 185.1 55.8159C184.103 55.0588 183.625 53.7238 183.622 51.7797Z" fill="#FFF7ED"/>
<path d="M196.717 54.7767C195.299 53.2855 194.585 51.1871 194.582 48.5187C194.616 45.8444 195.437 43.8079 197.083 42.4034C198.729 40.9989 200.79 40.2911 203.31 40.3114C208.423 40.3403 210.854 42.9293 210.596 48.0412L201.093 47.9831L201.07 49.283C201.04 51.4993 201.342 53.1671 201.86 54.2672C202.42 55.3985 203.387 55.9697 204.799 55.9749C207.393 55.9834 209.119 54.6043 209.94 51.8435L210.528 51.9411C210.1 53.5721 209.303 54.8039 208.188 55.7051C207.072 56.6062 205.385 57.0259 203.175 57.0329C200.32 57.0656 198.141 56.305 196.717 54.7767ZM201.105 47.3331L204.578 47.3549L204.585 45.7143C204.599 43.8818 204.479 42.6426 204.299 41.9849C204.081 41.333 203.682 40.9769 203.032 40.9655C202.382 40.954 201.902 41.2969 201.599 42.0312C201.29 42.7283 201.144 43.9716 201.112 45.6925L201.105 47.3331Z" fill="#FFF7ED"/>
<path d="M32.3782 32.3447L32.3016 44.1383C33.1778 42.2076 34.6281 41.2534 36.6896 41.2701C40.8871 41.2916 42.9754 44.1254 42.9428 49.6973C42.9383 52.5576 42.3148 54.639 41.1584 56.0041C39.9961 57.332 38.2325 57.9926 35.9419 57.9742C34.7594 57.9708 33.8881 57.7657 33.2595 57.4077C32.6308 57.0497 32.2272 56.4273 32.0232 55.6208L31.7658 57.6061L24.0952 57.5628L24.1125 56.95L25.9822 56.9589L26.1704 32.8704L24.3007 32.8615L24.318 32.2487L32.3782 32.3447ZM36.1172 43.9153C35.9132 43.1088 35.4706 42.7214 34.8206 42.7099C34.1706 42.6985 33.5854 43.0962 33.0651 43.903C32.5447 44.7099 32.2633 45.822 32.2581 47.2336L32.22 53.4926C32.2185 54.4461 32.3911 55.2957 32.8006 55.9552C33.1729 56.6207 33.7644 56.9846 34.4887 56.9842C35.2131 56.9839 35.7062 56.4864 36.0112 55.523C36.273 54.5283 36.4171 52.7897 36.4492 50.3445L36.4758 48.5864C36.4571 46.3017 36.3584 44.7159 36.1172 43.9153Z" fill="#215E99"/>
<path d="M45.4008 55.8278C43.9827 54.3367 43.2691 52.2383 43.2658 49.5698C43.2998 46.8955 44.1211 44.859 45.7669 43.4545C47.4127 42.05 49.4739 41.3423 51.9936 41.3626C57.1073 41.3915 59.5381 43.9804 59.2802 49.0923L49.7771 49.0342L49.7543 50.3342C49.724 52.5504 49.9891 54.2242 50.5437 55.3183C51.1041 56.4496 52.0716 57.0208 53.4459 57.0319C56.04 57.0405 57.7661 55.6614 58.587 52.9005L59.1744 52.9981C58.7464 54.6292 57.9502 55.861 56.8347 56.7621C55.7192 57.6632 54.0318 58.083 51.8215 58.0899C49.0042 58.1167 46.8621 57.3503 45.4008 55.8278ZM49.8317 48.4155L53.3048 48.4374L53.3118 46.7967C53.3266 44.9643 53.2438 43.7192 53.0262 43.0673C52.8085 42.4155 52.409 42.0594 51.759 42.0479C51.109 42.0365 50.6295 42.3793 50.3264 43.1136C50.0174 43.8108 49.8653 45.0168 49.8387 46.7749L49.8317 48.4155Z" fill="#215E99"/>
</svg>
